<?xml version="1.0" encoding="utf-8"?>
<!-- Generator: Adobe Illustrator 22.0.1, SVG Export Plug-In . SVG Version: 6.00 Build 0)  -->
<svg version="1.1" id="Calque_1" xmlns="http://www.w3.org/2000/svg" xmlns:xlink="http://www.w3.org/1999/xlink" x="0px" y="0px"
	 viewBox="0 0 120 120" style="enable-background:new 0 0 120 120;" xml:space="preserve">
<style type="text/css">
	.st0{fill:none;stroke:#666666;stroke-width:2;}
	.st1{enable-background:new    ;}
	.st2{fill:#999999;}
</style>
<polygon class="st0" points="43.3,39.2 65.4,39.2 76.7,50.5 76.7,80.8 43.3,80.8 "/>
<polyline class="st0" points="65,39.2 65,50.9 76.7,50.8 "/>
<g class="st1">
	<path class="st2" d="M51.8,71.8l-3.1-4.1h1.1l2.6,3.4l2.5-3.4H56l-3.1,4.1l3.2,4.3H55l-2.7-3.6l-2.7,3.6h-1.1L51.8,71.8z"/>
	<path class="st2" d="M57.9,67.7h0.9v7.5h4.7v0.9h-5.7V67.7z"/>
	<path class="st2" d="M68.2,76.2c-0.7,0-1.3-0.1-1.8-0.3c-0.6-0.2-1.1-0.6-1.6-1l0.6-0.7c0.4,0.4,0.9,0.7,1.3,0.9
		c0.4,0.2,1,0.3,1.5,0.3c0.6,0,1-0.1,1.4-0.4c0.3-0.3,0.5-0.6,0.5-1v0c0-0.2,0-0.4-0.1-0.5c-0.1-0.2-0.2-0.3-0.3-0.4
		c-0.2-0.1-0.4-0.2-0.7-0.3s-0.6-0.2-1.1-0.3c-0.5-0.1-0.9-0.2-1.3-0.4c-0.4-0.1-0.6-0.3-0.9-0.5c-0.2-0.2-0.4-0.4-0.5-0.7
		c-0.1-0.3-0.2-0.6-0.2-0.9v0c0-0.3,0.1-0.6,0.2-0.9c0.1-0.3,0.3-0.5,0.6-0.7c0.2-0.2,0.5-0.4,0.9-0.5c0.3-0.1,0.7-0.2,1.1-0.2
		c0.6,0,1.1,0.1,1.6,0.3c0.5,0.2,0.9,0.4,1.3,0.8l-0.5,0.7c-0.4-0.3-0.8-0.6-1.2-0.7c-0.4-0.1-0.8-0.2-1.2-0.2c-0.6,0-1,0.1-1.3,0.4
		c-0.3,0.3-0.5,0.6-0.5,1v0c0,0.2,0,0.4,0.1,0.5c0.1,0.2,0.2,0.3,0.3,0.4c0.2,0.1,0.4,0.3,0.7,0.4c0.3,0.1,0.7,0.2,1.1,0.3
		c0.9,0.2,1.6,0.5,2.1,0.9c0.4,0.4,0.7,0.9,0.7,1.5v0c0,0.4-0.1,0.7-0.2,1s-0.3,0.5-0.6,0.8c-0.2,0.2-0.5,0.4-0.9,0.5
		C69,76.2,68.6,76.2,68.2,76.2z"/>
</g>
</svg>
