<?xml version="1.0" encoding="utf-8"?>
<!-- Generator: Adobe Illustrator 22.0.1, SVG Export Plug-In . SVG Version: 6.00 Build 0)  -->
<svg version="1.1" id="Calque_1" xmlns="http://www.w3.org/2000/svg" xmlns:xlink="http://www.w3.org/1999/xlink" x="0px" y="0px"
	 viewBox="0 0 120 120" style="enable-background:new 0 0 120 120;" xml:space="preserve">
<style type="text/css">
	.st0{fill:none;stroke:#666666;stroke-width:2;}
	.st1{enable-background:new    ;}
	.st2{fill:#999999;}
</style>
<polygon class="st0" points="43.3,39.2 65.4,39.2 76.7,50.5 76.7,80.8 43.3,80.8 "/>
<polyline class="st0" points="65,39.2 65,50.9 76.7,50.8 "/>
<g class="st1">
	<path class="st2" d="M51,76.2c-0.7,0-1.3-0.1-1.8-0.3c-0.6-0.2-1.1-0.6-1.6-1l0.6-0.7c0.4,0.4,0.9,0.7,1.3,0.9s1,0.3,1.5,0.3
		c0.6,0,1-0.1,1.4-0.4c0.3-0.3,0.5-0.6,0.5-1v0c0-0.2,0-0.4-0.1-0.5c-0.1-0.2-0.2-0.3-0.3-0.4c-0.2-0.1-0.4-0.2-0.7-0.3
		c-0.3-0.1-0.6-0.2-1.1-0.3c-0.5-0.1-0.9-0.2-1.3-0.4c-0.4-0.1-0.6-0.3-0.9-0.5c-0.2-0.2-0.4-0.4-0.5-0.7s-0.2-0.6-0.2-0.9v0
		c0-0.3,0.1-0.6,0.2-0.9c0.1-0.3,0.3-0.5,0.6-0.7c0.2-0.2,0.5-0.4,0.9-0.5c0.3-0.1,0.7-0.2,1.1-0.2c0.6,0,1.1,0.1,1.6,0.3
		c0.5,0.2,0.9,0.4,1.3,0.8L53,69.4c-0.4-0.3-0.8-0.6-1.2-0.7c-0.4-0.1-0.8-0.2-1.2-0.2c-0.5,0-1,0.1-1.3,0.4c-0.3,0.3-0.5,0.6-0.5,1
		v0c0,0.2,0,0.4,0.1,0.5c0.1,0.2,0.2,0.3,0.3,0.4c0.2,0.1,0.4,0.3,0.7,0.4c0.3,0.1,0.7,0.2,1.1,0.3c0.9,0.2,1.6,0.5,2.1,0.9
		c0.4,0.4,0.7,0.9,0.7,1.5v0c0,0.4-0.1,0.7-0.2,1s-0.3,0.5-0.6,0.8c-0.2,0.2-0.5,0.4-0.9,0.5C51.8,76.2,51.4,76.2,51,76.2z"/>
	<path class="st2" d="M55,67.7h1.1l3,7.2l3-7.2h1l-3.6,8.5h-0.8L55,67.7z"/>
	<path class="st2" d="M68.6,76.3c-0.7,0-1.3-0.1-1.8-0.3s-1-0.5-1.3-0.9c-0.4-0.4-0.7-0.8-0.8-1.4s-0.3-1.1-0.3-1.7v0
		c0-0.6,0.1-1.1,0.3-1.6s0.5-1,0.9-1.4c0.4-0.4,0.8-0.7,1.3-1s1.1-0.4,1.7-0.4c0.4,0,0.7,0,1,0.1c0.3,0,0.6,0.1,0.8,0.2
		c0.2,0.1,0.5,0.2,0.7,0.4c0.2,0.1,0.4,0.3,0.6,0.5L71,69.4c-0.2-0.1-0.3-0.3-0.5-0.4s-0.4-0.2-0.6-0.3s-0.4-0.2-0.7-0.2
		c-0.2,0-0.5-0.1-0.8-0.1c-0.5,0-0.9,0.1-1.3,0.3s-0.7,0.4-1,0.7c-0.3,0.3-0.5,0.7-0.7,1.1c-0.2,0.4-0.2,0.9-0.2,1.3v0
		c0,0.5,0.1,1,0.2,1.4c0.2,0.4,0.4,0.8,0.7,1.1c0.3,0.3,0.6,0.6,1,0.7s0.9,0.3,1.4,0.3c0.5,0,0.9-0.1,1.4-0.2
		c0.4-0.2,0.8-0.4,1.1-0.6v-2.1h-2.5v-0.9h3.5V75c-0.4,0.4-0.9,0.7-1.4,0.9C69.9,76.1,69.3,76.3,68.6,76.3z"/>
</g>
</svg>
