<?xml version="1.0" encoding="utf-8"?>
<!-- Generator: Adobe Illustrator 22.0.1, SVG Export Plug-In . SVG Version: 6.00 Build 0)  -->
<svg version="1.1" id="Calque_1" xmlns="http://www.w3.org/2000/svg" xmlns:xlink="http://www.w3.org/1999/xlink" x="0px" y="0px"
	 viewBox="0 0 120 120" style="enable-background:new 0 0 120 120;" xml:space="preserve">
<style type="text/css">
	.st0{fill:none;stroke:#666666;stroke-width:2;}
	.st1{enable-background:new    ;}
	.st2{fill:#999999;}
</style>
<polygon class="st0" points="43.3,39.2 65.4,39.2 76.7,50.5 76.7,80.8 43.3,80.8 "/>
<polyline class="st0" points="65,39.2 65,50.9 76.7,50.8 "/>
<g class="st1">
	<path class="st2" d="M48.5,67.7h3.1c0.5,0,0.9,0.1,1.3,0.2c0.4,0.1,0.7,0.3,1,0.5s0.5,0.5,0.6,0.8s0.2,0.7,0.2,1.1v0
		c0,0.5-0.1,0.9-0.3,1.2c-0.2,0.3-0.4,0.6-0.7,0.9s-0.6,0.4-1,0.5c-0.4,0.1-0.8,0.2-1.3,0.2h-2v3h-0.9V67.7z M51.5,72.3
		c0.3,0,0.7,0,0.9-0.1c0.3-0.1,0.5-0.2,0.7-0.4s0.4-0.4,0.5-0.6s0.2-0.5,0.2-0.8v0c0-0.6-0.2-1.1-0.6-1.4c-0.4-0.3-1-0.5-1.6-0.5
		h-2.1v3.7H51.5z"/>
	<path class="st2" d="M56.5,67.7h2.9c0.7,0,1.3,0.1,1.8,0.3c0.5,0.2,1,0.5,1.4,0.9c0.4,0.4,0.7,0.8,0.9,1.3c0.2,0.5,0.3,1.1,0.3,1.7
		v0c0,0.6-0.1,1.1-0.3,1.7c-0.2,0.5-0.5,1-0.9,1.3c-0.4,0.4-0.9,0.7-1.4,0.9c-0.5,0.2-1.1,0.3-1.8,0.3h-2.9V67.7z M59.4,75.2
		c0.5,0,1-0.1,1.4-0.3s0.8-0.4,1.1-0.7c0.3-0.3,0.5-0.6,0.7-1.1c0.2-0.4,0.2-0.8,0.2-1.3v0c0-0.5-0.1-0.9-0.2-1.3
		c-0.2-0.4-0.4-0.8-0.7-1.1c-0.3-0.3-0.7-0.5-1.1-0.7c-0.4-0.2-0.9-0.3-1.4-0.3h-2v6.6H59.4z"/>
	<path class="st2" d="M65.8,67.7h6v0.9h-5.1v3h4.5v0.9h-4.5v3.7h-0.9V67.7z"/>
</g>
</svg>
