<svg xmlns="http://www.w3.org/2000/svg" viewBox="0 0 130 90"><title>Plan de travail 1</title><rect x="1" y="1" width="128" height="88" fill="none" stroke="#444" stroke-width="2"/><rect x="85" y="14" width="8" height="2"/><rect x="97" y="14" width="8" height="2"/><rect x="73" y="14" width="8" height="2"/><rect x="1" y="27" width="129" height="1"/><path d="M10.59,18V12h1.28v4.88h2.54V18Z"/><path d="M14.77,15a3,3,0,0,1,2.88-3.11h.25a3,3,0,0,1,3.1,2.9V15a3,3,0,0,1-2.89,3.1h-.25a3,3,0,0,1-3.09-2.91Zm5,0a1.83,1.83,0,0,0-3.65-.27,1.22,1.22,0,0,0,0,.27,1.83,1.83,0,0,0,3.65.27A1.22,1.22,0,0,0,19.77,15Z"/><path d="M21.66,15a3,3,0,0,1,2.88-3.11h.31a2.83,2.83,0,0,1,2.49,1.34l-1.07.58A1.68,1.68,0,0,0,24.85,13,1.87,1.87,0,0,0,23,14.89V15a1.88,1.88,0,0,0,1.74,2h.14a2,2,0,0,0,1.28-.46v-.72H24.54V14.67h2.87V17a3.37,3.37,0,0,1-2.56,1.13,3.05,3.05,0,0,1-3.19-2.91Z"/><path d="M28.14,15a3.14,3.14,0,0,1,6.27,0,3.14,3.14,0,0,1-6.27,0Zm5,0a1.83,1.83,0,1,0-3.65-.27,1.22,1.22,0,0,0,0,.27,1.83,1.83,0,0,0,3.65.27A1.22,1.22,0,0,0,33.14,15Z"/></svg>