<svg xmlns="http://www.w3.org/2000/svg" viewBox="0 0 130 90"><title>Plan de travail 1</title><rect x="1" y="1" width="128" height="88" fill="none" stroke="#000" stroke-width="2"/><rect x="66" y="14" width="8" height="2"/><rect x="78" y="14" width="8" height="2"/><rect x="54" y="14" width="8" height="2"/><rect x="1" y="27" width="129" height="1"/><path d="M10.59,18V12h1.28v4.88h2.54V18Z"/><path d="M14.77,15a3,3,0,0,1,3.13-3.11A3,3,0,0,1,21,15a3,3,0,0,1-3.14,3.1A3,3,0,0,1,14.77,15Zm5,0a1.83,1.83,0,1,0-3.65,0,1.83,1.83,0,1,0,3.65,0Z"/><path d="M21.66,15a3,3,0,0,1,3.19-3.11,2.82,2.82,0,0,1,2.49,1.34l-1.07.58A1.68,1.68,0,0,0,24.85,13,1.87,1.87,0,0,0,23,15a1.87,1.87,0,0,0,1.88,2,2.06,2.06,0,0,0,1.28-.46v-.72H24.54V14.67h2.87V17a3.35,3.35,0,0,1-2.56,1.13A3.05,3.05,0,0,1,21.66,15Z"/><path d="M28.14,15a3.14,3.14,0,0,1,6.27,0,3.14,3.14,0,0,1-6.27,0Zm5,0a1.83,1.83,0,1,0-3.65,0,1.83,1.83,0,1,0,3.65,0Z"/></svg>