<svg width="30" height="30" viewBox="0 0 30 30" xmlns="http://www.w3.org/2000/svg">
	<rect x="2" y="9" fill="none" stroke="#444444" stroke-width="2" width="26" height="12"/>
	<path fill="#444444" d="M8,17L8,17c-1.1,0-2-0.9-2-2v0c0-1.1,0.9-2,2-2h0c1.1,0,2,0.9,2,2v0C10,16.1,9.1,17,8,17z"/>
	<path fill="#444444" d="M15,17L15,17c-1.1,0-2-0.9-2-2v0c0-1.1,0.9-2,2-2h0c1.1,0,2,0.9,2,2v0C17,16.1,16.1,17,15,17z"/>
	<path fill="#444444" d="M22,17L22,17c-1.1,0-2-0.9-2-2v0c0-1.1,0.9-2,2-2h0c1.1,0,2,0.9,2,2v0C24,16.1,23.1,17,22,17z"/>
</svg>
