<svg xmlns="http://www.w3.org/2000/svg" viewBox="0 0 130 90"><title>Plan de travail 1</title><rect x="1" y="1" width="128" height="88" fill="none" stroke="#444" stroke-width="2"/><rect x="39" y="21" width="8" height="2"/><rect x="27" y="21" width="8" height="2"/><rect x="94" y="21" width="8" height="2"/><rect x="82" y="21" width="8" height="2"/><path d="M53.09,24V18h1.28v4.88h2.54V24Z"/><path d="M57.27,21a3,3,0,0,1,2.88-3.11h.25a3,3,0,0,1,3.1,2.9V21a3,3,0,0,1-2.89,3.1,1,1,0,0,1-.25,0,3,3,0,0,1-3.09-2.91Zm5,0a1.83,1.83,0,1,0-3.65-.27,1.22,1.22,0,0,0,0,.27,1.83,1.83,0,0,0,3.65.27A1.22,1.22,0,0,0,62.27,21Z"/><path d="M64.16,21A3,3,0,0,1,67,17.88h.31a2.83,2.83,0,0,1,2.49,1.34l-1.07.58A1.68,1.68,0,0,0,67.35,19a1.87,1.87,0,0,0-1.85,1.89V21a1.88,1.88,0,0,0,1.74,2h.14a2,2,0,0,0,1.28-.46v-.72H67V20.66h2.87V23a3.34,3.34,0,0,1-2.56,1.13,3.05,3.05,0,0,1-3.19-2.9Z"/><path d="M70.64,21a3.14,3.14,0,0,1,6.27,0,3.14,3.14,0,0,1-6.27,0Zm5,0A1.83,1.83,0,1,0,72,20.72,1.22,1.22,0,0,0,72,21a1.83,1.83,0,1,0,3.65.27A1.22,1.22,0,0,0,75.64,21Z"/></svg>